HIERARCHY
ROOT Hips
{
	OFFSET -10.056300 7.733760 -472.550000
	CHANNELS 6 Xposition Yposition Zposition Zrotation Yrotation Xrotation 
	JOINT Spine
	{
		OFFSET 0.000000 0.000000 0.000000
		CHANNELS 3 Zrotation Yrotation Xrotation
		JOINT Spine1
		{
			OFFSET 19.000000 0.000000 0.000000
			CHANNELS 3 Zrotation Yrotation Xrotation
			JOINT Neck
			{
				OFFSET 22.500000 0.600000 0.000000
				CHANNELS 3 Zrotation Yrotation Xrotation
				JOINT Head
				{
					OFFSET 14.000000 0.030878 0.000000
					CHANNELS 3 Zrotation Yrotation Xrotation
					End Site
					{
						OFFSET 17.000000 0.000000 0.000000
					}
				}
			}
			JOINT LeftShoulder
			{
				OFFSET 19.800000 3.700000 4.300000
				CHANNELS 3 Zrotation Yrotation Xrotation
				JOINT LeftArm
				{
					OFFSET 8.000000 0.000000 0.000000
					CHANNELS 3 Zrotation Yrotation Xrotation
					JOINT LeftForeArm
					{
						OFFSET 15.200000 0.000000 0.000000
						CHANNELS 3 Zrotation Yrotation Xrotation
						JOINT LeftHand
						{
							OFFSET 17.800000 0.000000 0.000000
							CHANNELS 3 Zrotation Yrotation Xrotation
							End Site
							{
								OFFSET 7.200000 0.000000 0.000000
							}
						}
					}
				}
			}
			JOINT RightShoulder
			{
				OFFSET 19.800000 3.700000 -4.300000
				CHANNELS 3 Zrotation Yrotation Xrotation
				JOINT RightArm
				{
					OFFSET 8.000000 0.000000 0.151654
					CHANNELS 3 Zrotation Yrotation Xrotation
					JOINT RightForeArm
					{
						OFFSET 15.200000 0.000000 0.000000
						CHANNELS 3 Zrotation Yrotation Xrotation
						JOINT RightHand
						{
							OFFSET 17.800000 0.000000 0.000000
							CHANNELS 3 Zrotation Yrotation Xrotation
							End Site
							{
								OFFSET 7.200000 0.000000 0.000000
							}
						}
					}
				}
			}
		}
	}
	JOINT LeftUpLeg
	{
		OFFSET 5.984250 -7.666000 4.788790
		CHANNELS 3 Zrotation Yrotation Xrotation
		JOINT LeftLeg
		{
			OFFSET 16.000000 0.000000 0.000000
			CHANNELS 3 Zrotation Yrotation Xrotation
			JOINT LeftFoot
			{
				OFFSET 18.000000 0.000000 0.000000
				CHANNELS 3 Zrotation Yrotation Xrotation
				End Site
				{
					OFFSET 0.000000 -10.800000 0.000000
				}
			}
		}
	}
	JOINT RightUpLeg
	{
		OFFSET 5.984250 -7.665980 -4.788790
		CHANNELS 3 Zrotation Yrotation Xrotation
		JOINT RightLeg
		{
			OFFSET 16.000000 0.000000 0.000000
			CHANNELS 3 Zrotation Yrotation Xrotation
			JOINT RightFoot
			{
				OFFSET 18.000000 0.000000 0.000000
				CHANNELS 3 Zrotation Yrotation Xrotation
				End Site
				{
					OFFSET 0.000000 -10.800000 0.000000
				}
			}
		}
	}
	JOINT Tail
	{
		OFFSET 6.836960 -0.722574 0.000000
		CHANNELS 3 Zrotation Yrotation Xrotation
		JOINT Tail1
		{
			OFFSET 12.000000 0.000000 0.000000
			CHANNELS 3 Zrotation Yrotation Xrotation
			End Site
			{
				OFFSET 12.000000 0.000000 0.000000
			}
		}
	}
}
MOTION
Frames: 10
Frame Time: 0.033333
3046.967041 7862.052246 8877.411133 nan nan nan nan nan nan nan nan nan nan nan nan nan nan nan nan nan nan nan nan nan nan nan nan nan nan nan nan nan nan nan nan nan nan nan nan nan nan nan nan nan nan nan nan nan nan nan nan nan nan nan nan nan nan nan nan nan nan nan nan nan nan nan 
48825.042969 19960.521484 19685.625000 -175.017090 33.790741 -96.577911 -134.148163 -4.887193 6.454081 -97.787270 -37.532558 30.476467 -21.370392 43.275776 67.450294 29.714756 34.257015 -55.350067 -18.526951 61.604076 -64.954521 -38.265965 -74.464188 138.678467 -112.796280 -34.542740 173.005493 -153.897385 -7.129178 -109.871071 166.015625 9.836752 21.859051 16.230940 -36.700653 109.437279 118.294197 -12.272551 -96.021393 144.847656 1.372698 -37.420189 -121.956749 -56.492889 -11.647389 123.835670 -32.831554 86.463737 146.928223 -37.557243 -85.218460 -148.524689 5.541187 17.630888 100.775795 19.750383 -60.916161 108.138107 -40.470421 -94.605217 -54.521736 -3.619952 -72.774605 23.723951 13.482509 -107.362854 
114097.718750 4087.040039 35773.476562 177.475342 35.717518 -101.317856 -132.877594 -4.638811 6.838171 -99.564827 -37.245552 31.619656 -23.158123 46.255016 60.626743 27.853176 34.736568 -57.465076 -9.782409 55.391850 -57.713436 -33.981861 -72.501480 136.980637 -113.514114 -36.309681 176.716156 -155.045593 -11.556011 -110.470016 162.964661 11.451251 22.863279 18.860975 -37.295082 109.237076 111.586014 -6.360889 -108.488876 148.179733 0.736391 -31.216499 -125.950104 -57.430073 -11.635674 124.673195 -27.491512 78.992188 144.792374 -39.987270 -86.405884 -147.326126 5.845948 16.449732 97.080368 14.453318 -55.115391 106.217239 -39.106705 -92.864510 -66.206169 -29.048937 -70.924782 24.801966 10.751925 -90.122368 
140285.500000 -3967.006836 41477.359375 169.864090 36.765614 -105.631226 -131.899841 -4.289160 7.035987 -101.340546 -37.683567 33.148197 -25.724243 46.260239 53.299812 24.978407 36.633358 -59.573952 -2.791960 47.292511 -51.638962 -33.028728 -69.805397 139.587677 -113.000282 -35.889126 179.868835 -155.031021 -14.931203 -114.615456 156.273621 12.715294 26.267546 20.101460 -38.655151 110.018478 101.715881 -1.690492 -115.315208 151.003433 0.980407 -25.177584 -130.097900 -58.127510 -11.306048 122.140526 -21.721451 70.525116 141.946442 -43.479588 -87.645172 -144.481857 5.237116 15.916167 90.617813 11.526707 -48.609352 111.148529 -33.292439 -94.869102 -84.879776 -53.999088 -60.850124 23.767302 5.999660 -74.634689 
140804.875000 -31.600830 42450.222656 166.888809 37.437893 -104.885475 -131.123581 -3.883047 7.029413 -102.983238 -38.661800 34.751064 -28.213827 43.750858 47.277386 21.626347 39.323765 -61.979271 1.718549 38.719517 -47.408123 -30.926336 -67.185677 140.802704 -112.098839 -33.540771 -177.662308 -154.063339 -17.026392 -122.920097 145.979507 13.927753 33.399654 19.545429 -40.830807 111.741692 86.657089 2.314229 -115.159882 151.447723 1.061788 -21.121706 -133.104034 -58.278950 -11.408901 118.611885 -18.187178 61.668175 139.395279 -46.686161 -88.391266 -140.243256 3.388843 15.804542 75.886742 8.966618 -44.724895 122.828941 -19.760639 -94.641319 -126.427521 -73.003716 -26.318707 19.502949 0.777974 -64.272171 
157115.609375 9995.880859 51887.371094 169.262100 35.144360 -97.323601 -130.500488 -3.579399 6.851562 -104.538361 -39.934269 36.106415 -30.626205 39.737812 43.283031 17.424774 41.961830 -65.107224 5.372756 31.272238 -45.089153 -27.426241 -65.402336 139.690781 -112.236511 -29.982876 -174.520081 -152.921051 -19.973700 -134.542542 133.930756 17.179602 45.003056 15.420728 -42.633255 116.179420 66.679619 7.167299 -106.480103 149.922394 1.117128 -18.822662 -135.249496 -57.941326 -11.472050 116.104469 -18.607145 52.928829 136.795853 -49.575722 -87.880249 -134.828018 -0.441264 15.884472 53.944057 4.460394 -43.336380 137.564285 -3.380013 -89.603378 158.454269 -73.111649 43.056877 12.349046 -2.747277 -63.687878 
186258.406250 5996.656738 62910.093750 171.231003 29.586845 -90.024185 -129.996353 -3.362365 6.524590 -106.269516 -41.222271 37.319286 -33.349007 35.799370 40.760342 13.158667 44.111996 -68.749153 9.774072 25.921246 -44.305099 -24.866526 -64.205330 138.156876 -114.658081 -26.321886 -167.971573 -151.028854 -24.255524 -150.256866 125.508354 25.207567 60.154408 6.760074 -42.014751 123.806526 46.734097 14.395769 -89.225555 149.598312 2.065855 -17.228487 -136.631012 -57.395451 -11.028682 113.731239 -21.806170 45.773563 132.976318 -53.049397 -85.392799 -129.277237 -5.751204 15.604572 34.149887 0.448630 -41.773811 150.628510 8.159566 -84.366516 129.924759 -65.689690 68.743843 5.490752 -4.368933 -75.097198 
213411.593750 -5661.897949 73628.734375 170.643936 23.521254 -89.082458 -129.544342 -3.283845 6.117068 -108.191505 -42.331432 38.501965 -35.330994 32.430954 40.617638 9.104471 44.666054 -73.172905 14.190585 25.055094 -44.491127 -25.323092 -64.371964 137.963257 -119.806648 -20.722517 -157.579102 -147.731461 -26.128355 -172.828949 124.848984 35.972355 77.698860 -3.921448 -37.318085 130.847412 35.247742 20.044336 -65.506851 152.729111 4.514738 -15.120932 -136.294785 -57.679470 -11.025937 109.674408 -24.292503 42.966732 128.169098 -57.961651 -82.833824 -123.992027 -10.201428 14.965832 21.954639 0.132712 -40.509102 161.571640 15.658227 -81.171227 128.071671 -65.781738 72.439125 1.930107 -4.365004 -93.522629 
240288.046875 6222.514160 89450.289062 169.843826 19.238375 -92.696701 -129.145660 -3.343809 5.628766 -110.222313 -43.336147 39.845936 -36.322754 29.174997 42.837368 6.082880 44.133602 -77.717896 17.204592 28.246792 -44.963448 -29.294622 -66.257759 139.336090 -126.449951 -9.636870 -144.797714 -146.226486 -23.665327 163.967422 133.224197 45.598236 99.426949 -14.133366 -30.645100 134.223969 32.651241 17.224960 -35.838669 156.918076 7.262946 -12.657993 -134.382767 -59.076729 -12.040910 103.821045 -24.351528 44.455215 124.382004 -63.724590 -82.642883 -119.757240 -12.109872 14.411941 14.517517 2.607949 -40.103245 173.061096 21.443478 -77.699776 159.377716 -74.334915 47.251793 1.701818 -2.150170 -111.725494 
273922.656250 12074.672852 111197.843750 169.009872 17.159796 -97.767632 -128.713501 -3.517475 5.058269 -112.412781 -44.401493 41.547546 -36.081379 26.244793 46.127682 4.384823 43.580025 -81.901001 18.973038 32.939579 -46.030106 -34.976555 -68.114342 141.562881 -133.616989 9.316999 -130.361145 -148.391327 -19.547857 147.425644 149.255219 51.192429 126.497650 -23.991741 -24.446573 135.250412 30.144831 4.674324 0.404940 159.913361 9.344207 -11.368489 -132.554810 -60.455837 -13.463805 99.080002 -22.670359 47.546413 124.107658 -68.973793 -86.814613 -117.263000 -12.356288 13.640682 9.999911 6.362045 -40.186615 -175.952011 25.385920 -73.438370 -121.497162 -68.616982 -25.436535 2.193068 1.073550 -125.821899 
